HIERARCHY
ROOT joint_Root
{
	OFFSET 0.0 0.0 0.0
	CHANNELS 6 Xposition Yposition Zposition Zrotation Xrotation Yrotation 
	JOINT Hips
	{
		OFFSET -17.1583 93.1646 452.98
		CHANNELS 6 Xposition Yposition Zposition Zrotation Xrotation Yrotation 
		JOINT Spine
		{
			OFFSET 15.7357 0.0 0.0
			CHANNELS 6 Xposition Yposition Zposition Zrotation Xrotation Yrotation 
			JOINT Chest
			{
				OFFSET 8.98455 -0.406207 0.0
				CHANNELS 6 Xposition Yposition Zposition Zrotation Xrotation Yrotation 
				JOINT Neck
				{
					OFFSET 16.3773 0.0 0.0
					CHANNELS 6 Xposition Yposition Zposition Zrotation Xrotation Yrotation 
					JOINT Head
					{
						OFFSET 6.45672 0.0 0.0
						CHANNELS 6 Xposition Yposition Zposition Zrotation Xrotation Yrotation 
						End Site
						{
							OFFSET 0.0 0.0 0.0
						}
					}
				}
				JOINT Shoulder_L
				{
					OFFSET 12.9942 -0.242716 4.98039
					CHANNELS 6 Xposition Yposition Zposition Zrotation Xrotation Yrotation 
					JOINT UpperArm_L
					{
						OFFSET 5.34809 0.0 0.0
						CHANNELS 6 Xposition Yposition Zposition Zrotation Xrotation Yrotation 
						JOINT LowerArm_L
						{
							OFFSET 24.3286 1.87007e-05 0.0
							CHANNELS 6 Xposition Yposition Zposition Zrotation Xrotation Yrotation 
							JOINT Hand_L
							{
								OFFSET 22.2916 0.0 0.0
								CHANNELS 6 Xposition Yposition Zposition Zrotation Xrotation Yrotation 
								End Site
								{
									OFFSET 0.0 0.0 0.0
								}
							}
						}
					}
				}
				JOINT Shoulder_R
				{
					OFFSET 12.9945 -0.242716 -4.98039
					CHANNELS 6 Xposition Yposition Zposition Zrotation Xrotation Yrotation 
					JOINT UpperArm_R
					{
						OFFSET -5.34813 0.0 0.0
						CHANNELS 6 Xposition Yposition Zposition Zrotation Xrotation Yrotation 
						JOINT LowerArm_R
						{
							OFFSET -24.3289 0.000322201 0.0
							CHANNELS 6 Xposition Yposition Zposition Zrotation Xrotation Yrotation 
							JOINT Hand_R
							{
								OFFSET -22.2915 -0.000108084 0.0
								CHANNELS 6 Xposition Yposition Zposition Zrotation Xrotation Yrotation 
								End Site
								{
									OFFSET 0.0 0.0 0.0
								}
							}
						}
					}
				}
			}
		}
		JOINT UpperLeg_L
		{
			OFFSET -2.19248 -6.46944 0.0
			CHANNELS 6 Xposition Yposition Zposition Zrotation Xrotation Yrotation 
			JOINT LowerLeg_L
			{
				OFFSET 39.0811 0.0 -1.23785e-05
				CHANNELS 6 Xposition Yposition Zposition Zrotation Xrotation Yrotation 
				JOINT Foot_L
				{
					OFFSET 40.9854 0.0 -1.26872e-05
					CHANNELS 6 Xposition Yposition Zposition Zrotation Xrotation Yrotation 
					JOINT Toes_L
					{
						OFFSET 11.7543 0.0 0.0
						CHANNELS 6 Xposition Yposition Zposition Zrotation Xrotation Yrotation 
						End Site
						{
							OFFSET 0.0 0.0 0.0
						}
					}
				}
			}
		}
		JOINT UpperLeg_R
		{
			OFFSET -2.19251 6.46944 0.0
			CHANNELS 6 Xposition Yposition Zposition Zrotation Xrotation Yrotation 
			JOINT LowerLeg_R
			{
				OFFSET -39.0811 -0.00228153 -0.0401928
				CHANNELS 6 Xposition Yposition Zposition Zrotation Xrotation Yrotation 
				JOINT Foot_R
				{
					OFFSET -40.9854 0.0 0.0
					CHANNELS 6 Xposition Yposition Zposition Zrotation Xrotation Yrotation 
					JOINT Toes_R
					{
						OFFSET -11.7543 0.0 0.0
						CHANNELS 6 Xposition Yposition Zposition Zrotation Xrotation Yrotation 
						End Site
						{
							OFFSET 0.0 0.0 0.0
						}
					}
				}
			}
		}
	}
}
MOTION
Frames:	6
Frame Time:	0.0333333
0.000000 0.000000 0.000000 0.000000 0.000000 -0.000000 192.668000 92.959400 -126.309000 88.788800 4.236670 -2.141840 15.735700 0.000005 -0.000001 139.893000 86.654800 -139.621000 8.984550 -0.406207 -0.000000 -3.474590 5.087770 0.699146 16.377300 -0.000001 -0.000001 -3.184160 -2.240130 -0.583099 6.456720 -0.000001 -0.000000 2.035240 -6.380690 0.072092 12.994200 -0.242716 4.980390 -92.931600 7.303630 -68.058000 5.348090 -0.000007 -0.000001 -52.663400 -19.608700 15.905900 24.328600 0.000019 0.000005 2.615550 17.681100 -8.561680 22.291600 -0.000001 0.000005 -5.975910 5.077460 5.598450 12.994500 -0.242716 -4.980390 89.010800 3.425070 -73.881300 -5.348130 -0.000001 -0.000004 -66.563400 21.038100 -14.306500 -24.328900 0.000322 -0.000009 0.923979 1.416710 -33.146100 -22.291500 -0.000108 -0.000004 4.044170 5.342860 -1.162800 -2.192480 -6.469440 -0.000000 -174.158000 2.294800 -22.672900 39.081100 -0.000007 -0.000012 0.230854 -0.144494 57.956400 40.985400 -0.000006 -0.000013 -16.762400 16.492400 -37.144800 11.754300 -0.000000 0.000003 0.001837 0.040938 -14.916100 -2.192510 6.469440 -0.000001 -176.631000 6.516020 176.450000 -39.081100 -0.002282 -0.040193 -0.019436 0.050644 24.189900 -40.985400 0.000008 0.000006 -5.280800 -2.762640 -72.917600 -11.754300 -0.000006 -0.000006 -0.000275 0.172168 -9.590040
0.000000 0.000000 0.000000 0.000000 0.000000 -0.000000 193.164000 94.069200 -123.584000 89.984900 3.065070 -3.313450 15.735700 0.000005 -0.000001 145.700000 86.520800 -146.051000 8.984550 -0.406207 -0.000000 -3.836820 5.780120 -0.507636 16.377300 -0.000001 -0.000001 -3.213870 -1.923700 -0.761231 6.456720 -0.000001 -0.000000 2.291260 -6.384060 0.531935 12.994200 -0.242716 4.980390 -92.658800 6.391950 -67.357200 5.348090 -0.000007 -0.000001 -48.773300 -21.696500 19.139200 24.328600 0.000019 0.000005 2.678320 14.350600 -10.689000 22.291600 -0.000001 0.000005 -0.453482 5.009780 7.086620 12.994500 -0.242716 -4.980390 89.263000 2.595570 -74.143100 -5.348130 -0.000001 -0.000004 -65.246200 22.365500 -18.453700 -24.328900 0.000322 -0.000009 1.051640 1.502300 -35.027100 -22.291500 -0.000108 -0.000004 3.174380 5.322090 -0.555557 -2.192480 -6.469440 -0.000000 -175.965000 2.213590 -25.536800 39.081100 -0.000007 -0.000012 0.162628 -0.131871 50.961600 40.985400 -0.000006 -0.000013 -13.728700 14.953900 -45.064700 11.754300 -0.000000 0.000003 0.001756 0.038353 -15.021000 -2.192510 6.469440 -0.000001 -178.739000 8.837020 179.510000 -39.081100 -0.002282 -0.040193 -0.011213 0.042486 18.888600 -40.985400 0.000008 0.000006 -4.892850 0.148516 -68.333600 -11.754300 -0.000006 -0.000006 0.001371 0.140029 -10.894600
0.000000 0.000000 0.000000 0.000000 0.000000 -0.000000 193.601000 94.712400 -120.937000 90.702100 2.468690 -4.642480 15.735700 0.000005 -0.000001 149.914000 86.657000 -150.579000 8.984550 -0.406207 -0.000000 -4.391940 5.851010 -1.107000 16.377300 -0.000001 -0.000001 -3.101410 -1.547910 -1.195550 6.456720 -0.000001 -0.000000 2.353310 -6.029560 0.509848 12.994200 -0.242716 4.980390 -92.506200 5.981380 -67.216200 5.348090 -0.000007 -0.000001 -45.671200 -21.894800 21.751900 24.328600 0.000019 0.000005 2.731810 13.433900 -11.606000 22.291600 -0.000001 0.000005 6.861210 4.945460 8.429570 12.994500 -0.242716 -4.980390 89.401900 2.108100 -74.156500 -5.348130 -0.000001 -0.000004 -63.013600 23.406000 -22.941500 -24.328900 0.000322 -0.000009 1.214990 1.634060 -36.661800 -22.291500 -0.000108 -0.000004 2.182150 5.309790 -0.202550 -2.192480 -6.469440 -0.000000 -176.923000 2.414920 -27.227400 39.081100 -0.000007 -0.000012 0.103755 -0.122339 40.300500 40.985400 -0.000006 -0.000013 -11.538100 13.572900 -49.250600 11.754300 -0.000000 0.000003 0.001897 0.042954 -14.834400 -2.192510 6.469440 -0.000001 179.639000 12.044700 -178.028000 -39.081100 -0.002282 -0.040193 -0.003371 0.026062 14.421400 -40.985400 0.000008 0.000006 -4.334180 3.456050 -64.602100 -11.754300 -0.000006 -0.000006 0.002381 0.101300 -12.465200
0.000000 0.000000 0.000000 0.000000 0.000000 -0.000000 193.997000 94.741600 -118.171000 90.799800 1.876210 -5.578690 15.735700 0.000005 -0.000001 152.621000 86.735200 -153.305000 8.984550 -0.406207 -0.000000 -4.740880 5.867480 -1.127900 16.377300 -0.000001 -0.000001 -3.195760 -1.216980 -1.536850 6.456720 -0.000001 -0.000000 2.479420 -5.568170 0.022118 12.994200 -0.242716 4.980390 -92.356900 5.706350 -67.512800 5.348090 -0.000007 -0.000001 -43.371800 -21.921400 23.273800 24.328600 0.000019 0.000005 2.507990 13.897300 -10.335200 22.291600 -0.000001 0.000005 13.821400 4.866700 10.009200 12.994500 -0.242716 -4.980390 89.512500 1.711370 -74.099000 -5.348130 -0.000001 -0.000004 -60.859300 23.741600 -26.959200 -24.328900 0.000322 -0.000009 1.358600 1.710610 -38.489100 -22.291500 -0.000108 -0.000004 1.996800 5.313390 -0.306169 -2.192480 -6.469440 -0.000000 -177.100000 1.776770 -26.620300 39.081100 -0.000007 -0.000012 0.062994 -0.129729 25.900300 40.985400 -0.000006 -0.000013 -10.608000 13.658000 -51.169900 11.754300 -0.000000 0.000003 0.001827 0.040601 -14.929800 -2.192510 6.469440 -0.000001 178.821000 13.465100 -175.823000 -39.081100 -0.002282 -0.040193 0.000400 0.014319 11.586400 -40.985400 0.000008 0.000006 -3.984850 5.181160 -62.787800 -11.754300 -0.000006 -0.000006 0.002429 0.070825 -13.700700
0.000000 0.000000 0.000000 0.000000 0.000000 -0.000000 194.314000 93.980700 -115.120000 90.270000 1.235250 -5.786190 15.735700 0.000005 -0.000001 151.939000 86.693200 -152.407000 8.984550 -0.406207 -0.000000 -4.643560 5.881670 -0.699121 16.377300 -0.000001 -0.000001 -3.435660 -0.863497 -1.776880 6.456720 -0.000001 -0.000000 2.485620 -5.037650 -0.436790 12.994200 -0.242716 4.980390 -92.283700 5.637000 -67.902800 5.348090 -0.000007 -0.000001 -41.421900 -22.172200 23.893500 24.328600 0.000019 0.000005 1.897220 13.963900 -7.815610 22.291600 -0.000001 0.000005 18.007900 4.752980 12.177200 12.994500 -0.242716 -4.980390 89.585900 1.457610 -74.138600 -5.348130 -0.000001 -0.000004 -59.312200 23.369800 -30.024000 -24.328900 0.000322 -0.000009 1.407210 1.638450 -40.692500 -22.291500 -0.000108 -0.000004 2.691470 5.316590 -0.396807 -2.192480 -6.469440 -0.000000 -176.939000 0.019675 -24.067500 39.081100 -0.000007 -0.000012 0.027644 -0.159425 9.837460 40.985400 -0.000006 -0.000013 -10.624900 14.691100 -53.118600 11.754300 -0.000000 0.000003 0.002005 0.046892 -14.674600 -2.192510 6.469440 -0.000001 178.671000 13.148200 -174.255000 -39.081100 -0.002282 -0.040193 -0.006019 0.043531 12.127000 -40.985400 0.000008 0.000006 -3.950300 5.523230 -63.679500 -11.754300 -0.000006 -0.000006 0.001756 0.038350 -15.017500
0.000000 0.000000 0.000000 0.000000 0.000000 -0.000000 194.685000 92.749700 -111.836000 89.619500 0.528280 -5.807680 15.735700 0.000005 -0.000001 149.941000 86.606700 -150.164000 8.984550 -0.406207 -0.000000 -4.367110 5.892830 -0.221516 16.377300 -0.000001 -0.000001 -3.876180 -0.565420 -1.863650 6.456720 -0.000001 -0.000000 2.240700 -4.489650 -0.755036 12.994200 -0.242716 4.980390 -92.547700 6.431960 -68.337000 5.348090 -0.000007 -0.000001 -39.242900 -22.657300 24.110300 24.328600 0.000019 0.000005 1.266820 12.903100 -5.653310 22.291600 -0.000001 0.000005 19.328900 4.616810 14.619700 12.994500 -0.242716 -4.980390 89.473800 1.873720 -74.309500 -5.348130 -0.000001 -0.000004 -58.143900 22.352100 -31.983300 -24.328900 0.000322 -0.000009 1.388820 1.486500 -43.090900 -22.291500 -0.000108 -0.000004 3.604270 5.323560 -0.596907 -2.192480 -6.469440 -0.000000 -176.234000 -0.454962 -26.204500 39.081100 -0.000007 -0.000012 -0.002892 0.032416 5.096030 40.985400 -0.000006 -0.000013 -10.394700 13.284900 -59.390200 11.754300 -0.000000 0.000003 0.002095 0.050520 -14.527500 -2.192510 6.469440 -0.000001 178.738000 11.745600 -173.344000 -39.081100 -0.002282 -0.040193 -0.019349 0.085981 14.776800 -40.985400 0.000008 0.000006 -3.889160 4.931280 -66.033100 -11.754300 -0.000006 -0.000006 -0.000024 -0.000397 -16.590000
